<?xml version="1.0" encoding="UTF-8" standalone="no"?>
<svg
   width="74"
   height="79"
   viewBox="0 0 74 79"
   fill="#ffffff"
   version="1.1"
   id="svg1"
   sodipodi:docname="mastodon-logo-dark.svg"
   inkscape:version="1.4.4 (dcaf3e7, 2026-05-05)"
   xmlns:inkscape="http://www.inkscape.org/namespaces/inkscape"
   xmlns:sodipodi="http://sodipodi.sourceforge.net/DTD/sodipodi-0.dtd"
   xmlns="http://www.w3.org/2000/svg"
   xmlns:svg="http://www.w3.org/2000/svg">
  <sodipodi:namedview
     id="namedview1"
     pagecolor="#ffffff"
     bordercolor="#000000"
     borderopacity="0.25"
     inkscape:showpageshadow="2"
     inkscape:pageopacity="0.0"
     inkscape:pagecheckerboard="0"
     inkscape:deskcolor="#d1d1d1"
     inkscape:zoom="2.6031384"
     inkscape:cx="44.753671"
     inkscape:cy="35.918182"
     inkscape:window-width="1369"
     inkscape:window-height="916"
     inkscape:window-x="0"
     inkscape:window-y="38"
     inkscape:window-maximized="0"
     inkscape:current-layer="svg1" />
  <defs
     id="defs1" />
  <path
     d="M 73.7014,17.9592 C 72.5616,9.62034 65.1774,3.04876 56.424,1.77536 54.9472,1.56019 49.3517,0.7771 36.3901,0.7771 H 36.2933 C 23.3281,0.7771 20.5465,1.56019 19.0697,1.77536 10.56,3.01348 2.78877,8.91838 0.903306,17.356 -0.00357857,21.5113 -0.100361,26.1181 0.068112,30.3439 0.308275,36.404 0.354874,42.4535 0.91406,48.489 c 0.38658,4.009 1.06096,7.9861 2.01809,11.9015 1.79226,7.2312 9.04735,13.249 16.15545,15.704 7.6103,2.5603 15.7945,2.9854 23.6364,1.2276 0.8626,-0.1976 1.7158,-0.4268 2.5593,-0.6879 1.9034,-0.5961 4.1366,-1.2628 5.7783,-2.4339 0.0225,-0.0164 0.041,-0.0376 0.054,-0.0621 0.013,-0.0244 0.0203,-0.0514 0.0212,-0.079 v -5.8484 c -4e-4,-0.0258 -0.0066,-0.0512 -0.0183,-0.0743 -0.0116,-0.0231 -0.0283,-0.0433 -0.049,-0.0592 -0.0206,-0.0159 -0.0446,-0.027 -0.0701,-0.0326 -0.0256,-0.0056 -0.0521,-0.0055 -0.0776,3e-4 -5.0242,1.181 -10.1727,1.773 -15.3382,1.7637 -8.8896,0 -11.2805,-4.1518 -11.9652,-5.8802 -0.5503,-1.4938 -0.8998,-3.0521 -1.0395,-4.6351 -0.0014,-0.0265 0.0036,-0.0531 0.0145,-0.0774 0.0109,-0.0244 0.0276,-0.0458 0.0485,-0.0627 0.021,-0.0168 0.0457,-0.0285 0.0721,-0.0342 0.0264,-0.0057 0.0538,-0.0052 0.08,0.0015 4.9405,1.173 10.005,1.765 15.0873,1.7637 1.2223,0 2.441,0 3.6634,-0.0317 5.1115,-0.1411 10.499,-0.3986 15.5281,-1.3652 0.1255,-0.0246 0.2509,-0.0458 0.3585,-0.0776 7.9325,-1.4991 15.4815,-6.2047 16.2486,-18.1203 0.0287,-0.4691 0.1004,-4.9137 0.1004,-5.4005 0.0036,-1.6543 0.5413,-11.7357 -0.0789,-17.9298 z M 61.4925,47.6918 H 53.1514 V 27.5855 c 0,-4.2329 -1.7923,-6.3917 -5.4378,-6.3917 -4.0075,0 -6.0148,2.5538 -6.0148,7.5981 v 11.0055 h -8.291 V 28.7919 c 0,-5.0443 -2.0109,-7.5981 -6.0184,-7.5981 -3.624,0 -5.4342,2.1588 -5.4378,6.3917 v 20.1063 h -8.334 V 26.9752 c 0,-4.2329 1.0981,-7.5957 3.2942,-10.0884 2.2654,-2.4868 5.237,-3.7637 8.9255,-3.7637 4.2691,0 7.4952,1.6155 9.6459,4.8431 l 2.0755,3.4287 2.079,-3.4287 c 2.1507,-3.2276 5.3768,-4.8431 9.6388,-4.8431 3.6849,0 6.6564,1.2769 8.929,3.7637 2.1962,2.4904 3.2942,5.8532 3.2942,10.0884 z"
     fill="inherit"
     id="path1"
     style="fill:#2d2d2f;fill-opacity:1" />
</svg>
