<?xml version="1.0" encoding="UTF-8" standalone="no"?>
<svg
   version="1.1"
   id="svg2"
   xml:space="preserve"
   width="165"
   height="165"
   viewBox="0 0 165 165"
   sodipodi:docname="youtube-logo-dark.svg"
   inkscape:version="1.4.4 (dcaf3e7, 2026-05-05)"
   xmlns:inkscape="http://www.inkscape.org/namespaces/inkscape"
   xmlns:sodipodi="http://sodipodi.sourceforge.net/DTD/sodipodi-0.dtd"
   xmlns="http://www.w3.org/2000/svg"
   xmlns:svg="http://www.w3.org/2000/svg"
   xmlns:rdf="http://www.w3.org/1999/02/22-rdf-syntax-ns#"
   xmlns:cc="http://creativecommons.org/ns#"
   xmlns:dc="http://purl.org/dc/elements/1.1/"><sodipodi:namedview
   id="namedview1"
   pagecolor="#ffffff"
   bordercolor="#000000"
   borderopacity="0.25"
   inkscape:showpageshadow="2"
   inkscape:pageopacity="0.0"
   inkscape:pagecheckerboard="0"
   inkscape:deskcolor="#d1d1d1"
   inkscape:zoom="1.5318618"
   inkscape:cx="110.64967"
   inkscape:cy="99.552061"
   inkscape:window-width="1287"
   inkscape:window-height="916"
   inkscape:window-x="0"
   inkscape:window-y="38"
   inkscape:window-maximized="0"
   inkscape:current-layer="svg2" />
 <metadata
   id="metadata8">
  <rdf:RDF>
   <cc:Work
   rdf:about="">
    <dc:format>
     image/svg+xml
    </dc:format>
    <dc:type
   rdf:resource="http://purl.org/dc/dcmitype/StillImage">
    </dc:type>
   </cc:Work>
  </rdf:RDF>
 </metadata>
 <defs
   id="defs6" />
 
 <g
   id="g10"
   transform="matrix(1.3333333,0,0,-1.3333333,0,165.33333)"
   style="fill:#2d2d2f;fill-opacity:1">
  <g
   id="g12"
   transform="matrix(0.07018079,0,0,0.07018079,0.19506294,19.547146)"
   style="fill:#2d2d2f;fill-opacity:1;stroke-width:0.9975;stroke-dasharray:none">
   <path
   d="m 700,358.313 v 523.375 l 460,-261.7 z m 1023.22,688.057 c -20.24,76.22 -79.88,136.24 -155.6,156.61 C 1430.37,1240 880,1240 880,1240 c 0,0 -550.367,0 -687.621,-37.02 C 116.656,1182.61 57.0156,1122.59 36.7773,1046.37 0,908.227 0,620 0,620 0,620 0,331.777 36.7773,193.629 57.0156,117.41 116.656,57.3906 192.379,37.0117 329.633,0 880,0 880,0 c 0,0 550.37,0 687.62,37.0117 75.72,20.3789 135.36,80.3983 155.6,156.6173 C 1760,331.777 1760,620 1760,620 c 0,0 0,288.227 -36.78,426.37"
   style="fill:#2d2d2f;fill-opacity:1;fill-rule:nonzero;stroke:none;stroke-width:0.9975;stroke-dasharray:none"
   id="path14">
   </path>
  </g>
 </g>
</svg>
